<?xml version="1.0" encoding="UTF-8"?>
<svg width="138px" height="25px" viewBox="0 0 138 25" version="1.1" xmlns="http://www.w3.org/2000/svg" xmlns:xlink="http://www.w3.org/1999/xlink">
    <title>logo</title>
    <g id="Final" stroke="none" stroke-width="1" fill="none" fill-rule="evenodd">
        <g id="Portfolio---No-Work-Section" transform="translate(-54.000000, -39.000000)" fill-rule="nonzero">
            <g id="logo" transform="translate(54.100000, 39.328000)">
                <path d="M7.012734,18.672 L7.012734,16.944 L5.332,16.39 L5.332,11.28 L7.451,11.28 L10.822,16.445 L9.364734,16.944 L9.364734,18.672 L16.180734,18.672 L16.180734,16.944 L14.677,16.49 L10.156,9.854 L13.758,4.024 L15.412734,3.504 L15.412734,1.776 L8.932734,1.896 L8.932734,3.624 L10.452,3.968 L7.588,8.808 L5.332,8.808 L5.332,4.029 L7.012734,3.456 L7.012734,1.776 L0.124734005,1.896 L0.124734005,3.624 L1.9,4.083 L1.9,16.425 L0.124734005,16.944 L0.124734005,18.672 L7.012734,18.672 Z M23.0847462,18.96 C23.9967462,18.96 24.9367462,18.804 25.9047462,18.492 C26.8727462,18.18 27.8207462,17.704 28.7487462,17.064 L28.7487462,17.064 L27.6207462,15.264 C26.9327462,15.664 26.2727462,15.964 25.6407462,16.164 C25.0087462,16.364 24.4207462,16.464 23.8767462,16.464 C23.1087462,16.464 22.4887462,16.272 22.0167462,15.888 C21.5447462,15.504 21.2047462,14.976 20.9967462,14.304 C20.8778891,13.92 20.7929911,13.5072653 20.7420523,13.0657959 L20.727,12.912 L28.7247462,12.912 C28.7567462,12.7093333 28.7834129,12.5137778 28.8047462,12.3253333 L28.8327462,12.048 C28.8567462,11.776 28.8687462,11.504 28.8687462,11.232 C28.8687462,10.16 28.6847462,9.196 28.3167462,8.34 C27.9487462,7.484 27.3727462,6.808 26.5887462,6.312 C25.8047462,5.816 24.7887462,5.568 23.5407462,5.568 C22.2607462,5.568 21.1487462,5.848 20.2047462,6.408 C19.2607462,6.968 18.5287462,7.764 18.0087462,8.796 C17.4887462,9.828 17.2287462,11.064 17.2287462,12.504 C17.2287462,13.896 17.4727462,15.076 17.9607462,16.044 C18.4487462,17.012 19.1327462,17.74 20.0127462,18.228 C20.8927462,18.716 21.9167462,18.96 23.0847462,18.96 Z M25.414,10.921 L20.751,10.921 L20.7967462,10.616 C20.8154129,10.5066667 20.8364129,10.3993333 20.8597462,10.294 L20.9367462,9.984 C21.1047462,9.376 21.3807462,8.892 21.7647462,8.532 C22.1487462,8.172 22.6527462,7.992 23.2767462,7.992 C23.8207462,7.992 24.2487462,8.128 24.5607462,8.4 C24.8727462,8.672 25.0967462,9.052 25.2327462,9.54 C25.3687462,10.028 25.4287462,10.592 25.4127462,11.232 L25.414,10.921 Z M36.5967488,18.672 L36.5967488,16.944 L34.988,16.485 L34.9887488,0 L30.0447488,0.192 L30.0447488,1.92 L31.628,2.364 L31.628,16.491 L30.0447488,16.944 L30.0447488,18.672 L36.5967488,18.672 Z M42.9487772,18.96 C44.3567772,18.96 45.5367772,18.788 46.4887772,18.444 C47.4407772,18.1 48.2007772,17.616 48.7687772,16.992 C49.3367772,16.368 49.7447772,15.636 49.9927772,14.796 C50.2407772,13.956 50.3647772,13.032 50.3647772,12.024 C50.3647772,10.616 50.1607772,9.432 49.7527772,8.472 C49.3447772,7.512 48.7887772,6.788 48.0847772,6.3 C47.3807772,5.812 46.5647772,5.568 45.6367772,5.568 C44.8687772,5.568 44.1407772,5.732 43.4527772,6.06 C42.9613486,6.29428571 42.4984915,6.59183673 42.0642057,6.95265306 L41.964,7.04 L41.9647772,0 L36.9967772,0.192 L36.9967772,1.92 L38.604,2.39 L38.6047772,18.48 C39.2703772,18.608 39.9001372,18.7104 40.4940572,18.7872 L40.9327772,18.84 C41.6527772,18.92 42.3247772,18.96 42.9487772,18.96 Z M43.5487772,16.56 C43.1373486,16.56 42.6810221,16.5110204 42.1797976,16.4130612 L41.964,16.368 L41.964,9.052 L41.9780017,9.03967347 C42.2562057,8.81371429 42.5291853,8.62693878 42.7969404,8.47934694 L42.9967772,8.376 C43.4607772,8.152 43.9007772,8.04 44.3167772,8.04 C44.8607772,8.04 45.3167772,8.212 45.6847772,8.556 C46.0527772,8.9 46.3407772,9.388 46.5487772,10.02 C46.7567772,10.652 46.8607772,11.408 46.8607772,12.288 C46.8607772,13.632 46.5967772,14.68 46.0687772,15.432 C45.5407772,16.184 44.7007772,16.56 43.5487772,16.56 Z M53.1807928,24.48 C54.0447928,24.48 54.8007928,24.348 55.4487928,24.084 C56.0967928,23.82 56.6647928,23.436 57.1527928,22.932 C57.6407928,22.428 58.0767928,21.816 58.4607928,21.096 C58.8447928,20.376 59.2047928,19.552 59.5407928,18.624 L59.5407928,18.624 L63.442,7.818 L64.5567928,7.464 L64.5567928,5.76 L58.8927928,5.952 L58.8927928,7.68 L60.292,7.964 L58.03,15.271 L55.511,7.854 L56.9487928,7.464 L56.9487928,5.76 L50.9727928,5.952 L50.9727928,7.68 L52.147,7.964 L56.507,18.796 L56.4191053,19.0194375 C56.2576053,19.4189375 56.0951053,19.7754375 55.9316053,20.0889375 L55.8087928,20.316 C55.4807928,20.9 55.0967928,21.332 54.6567928,21.612 C54.2167928,21.892 53.6447928,22.032 52.9407928,22.032 C52.7487928,22.032 52.5447928,22.024 52.3287928,22.008 C52.1127928,21.992 51.8767928,21.968 51.6207928,21.936 L51.6207928,21.936 L51.3087928,24.312 C51.9967928,24.424 52.6207928,24.48 53.1807928,24.48 Z M76.604803,18.672 L76.604803,16.944 L74.852,16.424 L74.852,11.304 L81.62,11.304 L81.62,16.423 L79.844803,16.944 L79.844803,18.672 L86.804803,18.672 L86.804803,16.944 L85.052,16.435 L85.052,4.088 L86.804803,3.504 L86.804803,1.776 L79.844803,1.896 L79.844803,3.624 L81.62,4.105 L81.62,8.832 L74.852,8.832 L74.852,4.094 L76.604803,3.504 L76.604803,1.776 L69.644803,1.896 L69.644803,3.624 L71.42,4.118 L71.42,16.428 L69.644803,16.944 L69.644803,18.672 L76.604803,18.672 Z M92.0207908,18.96 C92.8207908,18.96 93.5967908,18.768 94.3487908,18.384 C95.1007908,18 95.7967908,17.416 96.4367908,16.632 L96.253,16.848 L96.6527908,18.864 L100.852791,18.648 L100.852791,16.944 L99.244,16.439 L99.2447908,9.504 C99.2447908,8.2496 98.9033153,7.30183111 98.2203642,6.66069333 L98.0687908,6.528 C97.2847908,5.888 96.1487908,5.568 94.6607908,5.568 C93.9087908,5.568 93.0807908,5.644 92.1767908,5.796 C91.2727908,5.948 90.2767908,6.184 89.1887908,6.504 L89.1887908,6.504 L89.3807908,10.008 L91.4687908,10.008 L91.735,8.346 L91.7747908,8.334 C91.9907908,8.278 92.1987908,8.23 92.3987908,8.19 L92.6927908,8.136 C93.0767908,8.072 93.4367908,8.04 93.7727908,8.04 C94.4607908,8.04 94.9847908,8.2 95.3447908,8.52 C95.7047908,8.84 95.8847908,9.376 95.8847908,10.128 L95.8847908,10.128 L95.884,11.448 L93.5087908,11.448 C92.555902,11.448 91.7294328,11.5428148 91.0293834,11.7324444 L90.7727908,11.808 C90.0207908,12.048 89.4487908,12.436 89.0567908,12.972 C88.6647908,13.508 88.4687908,14.232 88.4687908,15.144 C88.4687908,16.376 88.8047908,17.32 89.4767908,17.976 C90.1487908,18.632 90.9967908,18.96 92.0207908,18.96 Z M93.5146684,16.5284082 L93.3407908,16.536 C92.9087908,16.536 92.5527908,16.396 92.2727908,16.116 C91.9927908,15.836 91.8527908,15.4 91.8527908,14.808 C91.8527908,14.264 92.0127908,13.864 92.3327908,13.608 C92.6527908,13.352 93.2287908,13.224 94.0607908,13.224 L94.0607908,13.224 L95.884,13.224 L95.884,15.282 L95.8107908,15.3523333 C95.5174575,15.6198889 95.2134575,15.8465556 94.8987908,16.0323333 L94.6607908,16.164 C94.1807908,16.412 93.7407908,16.536 93.3407908,16.536 L93.5146684,16.5284082 Z M108.195203,18.72 L110.782,9.624 L113.067203,18.72 L116.691203,18.72 L119.673,7.826 L120.795203,7.464 L120.795203,5.76 L115.683203,5.952 L115.683203,7.68 L116.948,7.978 L115.05,15.777 L112.659203,5.736 L109.227203,5.928 L106.671,15.574 L104.942,7.836 L106.299203,7.464 L106.299203,5.76 L100.635203,5.952 L100.635203,7.68 L101.801,7.967 L104.571203,18.72 L108.195203,18.72 Z M128.495251,18.672 L128.495251,16.944 L127.055,16.51 L127.055,9.351 L127.266353,9.16995918 C127.552394,8.93485714 127.841047,8.73893878 128.132312,8.58220408 L128.351251,8.472 C128.863251,8.232 129.335251,8.112 129.767251,8.112 C130.327251,8.112 130.779251,8.296 131.123251,8.664 C131.467251,9.032 131.639251,9.608 131.639251,10.392 L131.639251,10.392 L131.639,16.527 L130.199251,16.944 L130.199251,18.672 L136.607251,18.672 L136.607251,16.944 L134.999,16.462 L134.999251,9.672 C135.014184,8.38773333 134.708549,7.40661333 134.082344,6.72864 L133.943251,6.588 C133.223251,5.908 132.319251,5.568 131.231251,5.568 C130.447251,5.568 129.623251,5.756 128.759251,6.132 C128.087251,6.42444444 127.444288,6.8402963 126.830362,7.37955556 L126.65,7.545 L126.311251,5.736 L122.087251,5.928 L122.087251,7.656 L123.695,8.135 L123.695,16.485 L122.087251,16.944 L122.087251,18.672 L128.495251,18.672 Z" id="KelbyHawn" fill="#EEECEC"></path>
                <polygon id="Line-6-Copy" fill="#FF0000" points="62.6069314 22.672023 137.106784 22.672023 137.093068 24.671977 62.5932159 24.671977"></polygon>
                <polygon id="Line-6-Copy-2" fill="#FF0000" points="45.8 22.672 45.8 24.672 0 24.672 0 22.672"></polygon>
            </g>
        </g>
    </g>
</svg>