<?xml version="1.0" encoding="UTF-8"?>
<svg width="137px" height="26px" viewBox="0 0 137 26" version="1.1" xmlns="http://www.w3.org/2000/svg" xmlns:xlink="http://www.w3.org/1999/xlink">
    <title>logo</title>
    <g id="Final" stroke="none" stroke-width="1" fill="none" fill-rule="evenodd">
        <g id="Portfolio---No-Work-Section" transform="translate(-125.000000, -39.000000)">
            <g id="logo" transform="translate(125.000000, 39.000000)">
                <path d="M7.112734,19 L7.112734,17.272 L5.432,16.718 L5.432,11.608 L7.551,11.608 L10.922,16.773 L9.464734,17.272 L9.464734,19 L16.280734,19 L16.280734,17.272 L14.777,16.818 L10.256,10.182 L13.858,4.352 L15.512734,3.832 L15.512734,2.104 L9.032734,2.224 L9.032734,3.952 L10.552,4.296 L7.688,9.136 L5.432,9.136 L5.432,4.357 L7.112734,3.784 L7.112734,2.104 L0.224734005,2.224 L0.224734005,3.952 L2,4.411 L2,16.753 L0.224734005,17.272 L0.224734005,19 L7.112734,19 Z M23.1847462,19.288 C24.0967462,19.288 25.0367462,19.132 26.0047462,18.82 C26.9727462,18.508 27.9207462,18.032 28.8487462,17.392 L28.8487462,17.392 L27.7207462,15.592 C27.0327462,15.992 26.3727462,16.292 25.7407462,16.492 C25.1087462,16.692 24.5207462,16.792 23.9767462,16.792 C23.2087462,16.792 22.5887462,16.6 22.1167462,16.216 C21.6447462,15.832 21.3047462,15.304 21.0967462,14.632 C20.9778891,14.248 20.8929911,13.8352653 20.8420523,13.3937959 L20.827,13.24 L28.8247462,13.24 C28.8567462,13.0373333 28.8834129,12.8417778 28.9047462,12.6533333 L28.9327462,12.376 C28.9567462,12.104 28.9687462,11.832 28.9687462,11.56 C28.9687462,10.488 28.7847462,9.524 28.4167462,8.668 C28.0487462,7.812 27.4727462,7.136 26.6887462,6.64 C25.9047462,6.144 24.8887462,5.896 23.6407462,5.896 C22.3607462,5.896 21.2487462,6.176 20.3047462,6.736 C19.3607462,7.296 18.6287462,8.092 18.1087462,9.124 C17.5887462,10.156 17.3287462,11.392 17.3287462,12.832 C17.3287462,14.224 17.5727462,15.404 18.0607462,16.372 C18.5487462,17.34 19.2327462,18.068 20.1127462,18.556 C20.9927462,19.044 22.0167462,19.288 23.1847462,19.288 Z M25.514,11.249 L20.851,11.249 L20.8967462,10.944 C20.9154129,10.8346667 20.9364129,10.7273333 20.9597462,10.622 L21.0367462,10.312 C21.2047462,9.704 21.4807462,9.22 21.8647462,8.86 C22.2487462,8.5 22.7527462,8.32 23.3767462,8.32 C23.9207462,8.32 24.3487462,8.456 24.6607462,8.728 C24.9727462,9 25.1967462,9.38 25.3327462,9.868 C25.4687462,10.356 25.5287462,10.92 25.5127462,11.56 L25.514,11.249 Z M36.6967488,19 L36.6967488,17.272 L35.088,16.813 L35.0887488,0.328 L30.1447488,0.52 L30.1447488,2.248 L31.728,2.692 L31.728,16.819 L30.1447488,17.272 L30.1447488,19 L36.6967488,19 Z M43.0487772,19.288 C44.4567772,19.288 45.6367772,19.116 46.5887772,18.772 C47.5407772,18.428 48.3007772,17.944 48.8687772,17.32 C49.4367772,16.696 49.8447772,15.964 50.0927772,15.124 C50.3407772,14.284 50.4647772,13.36 50.4647772,12.352 C50.4647772,10.944 50.2607772,9.76 49.8527772,8.8 C49.4447772,7.84 48.8887772,7.116 48.1847772,6.628 C47.4807772,6.14 46.6647772,5.896 45.7367772,5.896 C44.9687772,5.896 44.2407772,6.06 43.5527772,6.388 C43.0613486,6.62228571 42.5984915,6.91983673 42.1642057,7.28065306 L42.064,7.368 L42.0647772,0.328 L37.0967772,0.52 L37.0967772,2.248 L38.704,2.718 L38.7047772,18.808 C39.3703772,18.936 40.0001372,19.0384 40.5940572,19.1152 L41.0327772,19.168 C41.7527772,19.248 42.4247772,19.288 43.0487772,19.288 Z M43.6487772,16.888 C43.2373486,16.888 42.7810221,16.8390204 42.2797976,16.7410612 L42.064,16.696 L42.064,9.38 L42.0780017,9.36767347 C42.3562057,9.14171429 42.6291853,8.95493878 42.8969404,8.80734694 L43.0967772,8.704 C43.5607772,8.48 44.0007772,8.368 44.4167772,8.368 C44.9607772,8.368 45.4167772,8.54 45.7847772,8.884 C46.1527772,9.228 46.4407772,9.716 46.6487772,10.348 C46.8567772,10.98 46.9607772,11.736 46.9607772,12.616 C46.9607772,13.96 46.6967772,15.008 46.1687772,15.76 C45.6407772,16.512 44.8007772,16.888 43.6487772,16.888 Z M53.2807928,24.808 C54.1447928,24.808 54.9007928,24.676 55.5487928,24.412 C56.1967928,24.148 56.7647928,23.764 57.2527928,23.26 C57.7407928,22.756 58.1767928,22.144 58.5607928,21.424 C58.9447928,20.704 59.3047928,19.88 59.6407928,18.952 L59.6407928,18.952 L63.542,8.146 L64.6567928,7.792 L64.6567928,6.088 L58.9927928,6.28 L58.9927928,8.008 L60.392,8.292 L58.13,15.599 L55.611,8.182 L57.0487928,7.792 L57.0487928,6.088 L51.0727928,6.28 L51.0727928,8.008 L52.247,8.292 L56.607,19.124 L56.5191053,19.3474375 C56.3576053,19.7469375 56.1951053,20.1034375 56.0316053,20.4169375 L55.9087928,20.644 C55.5807928,21.228 55.1967928,21.66 54.7567928,21.94 C54.3167928,22.22 53.7447928,22.36 53.0407928,22.36 C52.8487928,22.36 52.6447928,22.352 52.4287928,22.336 C52.2127928,22.32 51.9767928,22.296 51.7207928,22.264 L51.7207928,22.264 L51.4087928,24.64 C52.0967928,24.752 52.7207928,24.808 53.2807928,24.808 Z M76.704803,19 L76.704803,17.272 L74.952,16.752 L74.952,11.632 L81.72,11.632 L81.72,16.751 L79.944803,17.272 L79.944803,19 L86.904803,19 L86.904803,17.272 L85.152,16.763 L85.152,4.416 L86.904803,3.832 L86.904803,2.104 L79.944803,2.224 L79.944803,3.952 L81.72,4.433 L81.72,9.16 L74.952,9.16 L74.952,4.422 L76.704803,3.832 L76.704803,2.104 L69.744803,2.224 L69.744803,3.952 L71.52,4.446 L71.52,16.756 L69.744803,17.272 L69.744803,19 L76.704803,19 Z M92.1207908,19.288 C92.9207908,19.288 93.6967908,19.096 94.4487908,18.712 C95.2007908,18.328 95.8967908,17.744 96.5367908,16.96 L96.353,17.176 L96.7527908,19.192 L100.952791,18.976 L100.952791,17.272 L99.344,16.767 L99.3447908,9.832 C99.3447908,8.5776 99.0033153,7.62983111 98.3203642,6.98869333 L98.1687908,6.856 C97.3847908,6.216 96.2487908,5.896 94.7607908,5.896 C94.0087908,5.896 93.1807908,5.972 92.2767908,6.124 C91.3727908,6.276 90.3767908,6.512 89.2887908,6.832 L89.2887908,6.832 L89.4807908,10.336 L91.5687908,10.336 L91.835,8.674 L91.8747908,8.662 C92.0907908,8.606 92.2987908,8.558 92.4987908,8.518 L92.7927908,8.464 C93.1767908,8.4 93.5367908,8.368 93.8727908,8.368 C94.5607908,8.368 95.0847908,8.528 95.4447908,8.848 C95.8047908,9.168 95.9847908,9.704 95.9847908,10.456 L95.9847908,10.456 L95.984,11.776 L93.6087908,11.776 C92.655902,11.776 91.8294328,11.8708148 91.1293834,12.0604444 L90.8727908,12.136 C90.1207908,12.376 89.5487908,12.764 89.1567908,13.3 C88.7647908,13.836 88.5687908,14.56 88.5687908,15.472 C88.5687908,16.704 88.9047908,17.648 89.5767908,18.304 C90.2487908,18.96 91.0967908,19.288 92.1207908,19.288 Z M93.6146684,16.8564082 L93.4407908,16.864 C93.0087908,16.864 92.6527908,16.724 92.3727908,16.444 C92.0927908,16.164 91.9527908,15.728 91.9527908,15.136 C91.9527908,14.592 92.1127908,14.192 92.4327908,13.936 C92.7527908,13.68 93.3287908,13.552 94.1607908,13.552 L94.1607908,13.552 L95.984,13.552 L95.984,15.61 L95.9107908,15.6803333 C95.6174575,15.9478889 95.3134575,16.1745556 94.9987908,16.3603333 L94.7607908,16.492 C94.2807908,16.74 93.8407908,16.864 93.4407908,16.864 L93.6146684,16.8564082 Z M108.695203,19.048 L111.282,9.952 L113.567203,19.048 L117.191203,19.048 L120.173,8.154 L121.295203,7.792 L121.295203,6.088 L116.183203,6.28 L116.183203,8.008 L117.448,8.306 L115.55,16.105 L113.159203,6.064 L109.727203,6.256 L107.171,15.902 L105.442,8.164 L106.799203,7.792 L106.799203,6.088 L101.135203,6.28 L101.135203,8.008 L102.301,8.295 L105.071203,19.048 L108.695203,19.048 Z M128.295251,19 L128.295251,17.272 L126.855,16.838 L126.855,9.679 L127.066353,9.49795918 C127.352394,9.26285714 127.641047,9.06693878 127.932312,8.91020408 L128.151251,8.8 C128.663251,8.56 129.135251,8.44 129.567251,8.44 C130.127251,8.44 130.579251,8.624 130.923251,8.992 C131.267251,9.36 131.439251,9.936 131.439251,10.72 L131.439251,10.72 L131.439,16.855 L129.999251,17.272 L129.999251,19 L136.407251,19 L136.407251,17.272 L134.799,16.79 L134.799251,10 C134.814184,8.71573333 134.508549,7.73461333 133.882344,7.05664 L133.743251,6.916 C133.023251,6.236 132.119251,5.896 131.031251,5.896 C130.247251,5.896 129.423251,6.084 128.559251,6.46 C127.887251,6.75244444 127.244288,7.1682963 126.630362,7.70755556 L126.45,7.873 L126.111251,6.064 L121.887251,6.256 L121.887251,7.984 L123.495,8.463 L123.495,16.813 L121.887251,17.272 L121.887251,19 L128.295251,19 Z" id="KelbyHawn" fill="#EEECEC" fill-rule="nonzero"></path>
                <line x1="62.7" y1="24" x2="136.4" y2="24.5" id="Line-6-Copy" stroke="#FF0000" stroke-width="2"></line>
                <line x1="0.1" y1="24" x2="45.9" y2="24" id="Line-6-Copy-2" stroke="#FF0000" stroke-width="2"></line>
            </g>
        </g>
    </g>
</svg>