<?xml version="1.0" encoding="UTF-8"?>
<svg width="138px" height="29px" viewBox="0 0 138 29" version="1.1" xmlns="http://www.w3.org/2000/svg" xmlns:xlink="http://www.w3.org/1999/xlink">
    <title>logo</title>
    <g id="Final" stroke="none" stroke-width="1" fill="none" fill-rule="evenodd">
        <g id="Portfolio-Copy-2" transform="translate(-124.000000, -36.000000)">
            <g id="logo" transform="translate(124.000000, 36.000000)">
                <path d="M8.112734,22 L8.112734,20.272 L6.432,19.718 L6.432,14.608 L8.551,14.608 L11.922,19.773 L10.464734,20.272 L10.464734,22 L17.280734,22 L17.280734,20.272 L15.777,19.818 L11.256,13.182 L14.858,7.352 L16.512734,6.832 L16.512734,5.104 L10.032734,5.224 L10.032734,6.952 L11.552,7.296 L8.688,12.136 L6.432,12.136 L6.432,7.357 L8.112734,6.784 L8.112734,5.104 L1.224734,5.224 L1.224734,6.952 L3,7.411 L3,19.753 L1.224734,20.272 L1.224734,22 L8.112734,22 Z M24.1847462,22.288 C25.0967462,22.288 26.0367462,22.132 27.0047462,21.82 C27.9727462,21.508 28.9207462,21.032 29.8487462,20.392 L29.8487462,20.392 L28.7207462,18.592 C28.0327462,18.992 27.3727462,19.292 26.7407462,19.492 C26.1087462,19.692 25.5207462,19.792 24.9767462,19.792 C24.2087462,19.792 23.5887462,19.6 23.1167462,19.216 C22.6447462,18.832 22.3047462,18.304 22.0967462,17.632 C21.9778891,17.248 21.8929911,16.8352653 21.8420523,16.3937959 L21.827,16.24 L29.8247462,16.24 C29.8567462,16.0373333 29.8834129,15.8417778 29.9047462,15.6533333 L29.9327462,15.376 C29.9567462,15.104 29.9687462,14.832 29.9687462,14.56 C29.9687462,13.488 29.7847462,12.524 29.4167462,11.668 C29.0487462,10.812 28.4727462,10.136 27.6887462,9.64 C26.9047462,9.144 25.8887462,8.896 24.6407462,8.896 C23.3607462,8.896 22.2487462,9.176 21.3047462,9.736 C20.3607462,10.296 19.6287462,11.092 19.1087462,12.124 C18.5887462,13.156 18.3287462,14.392 18.3287462,15.832 C18.3287462,17.224 18.5727462,18.404 19.0607462,19.372 C19.5487462,20.34 20.2327462,21.068 21.1127462,21.556 C21.9927462,22.044 23.0167462,22.288 24.1847462,22.288 Z M26.514,14.249 L21.851,14.249 L21.8967462,13.944 C21.9154129,13.8346667 21.9364129,13.7273333 21.9597462,13.622 L22.0367462,13.312 C22.2047462,12.704 22.4807462,12.22 22.8647462,11.86 C23.2487462,11.5 23.7527462,11.32 24.3767462,11.32 C24.9207462,11.32 25.3487462,11.456 25.6607462,11.728 C25.9727462,12 26.1967462,12.38 26.3327462,12.868 C26.4687462,13.356 26.5287462,13.92 26.5127462,14.56 L26.514,14.249 Z M37.6967488,22 L37.6967488,20.272 L36.088,19.813 L36.0887488,3.328 L31.1447488,3.52 L31.1447488,5.248 L32.728,5.692 L32.728,19.819 L31.1447488,20.272 L31.1447488,22 L37.6967488,22 Z M44.0487772,22.288 C45.4567772,22.288 46.6367772,22.116 47.5887772,21.772 C48.5407772,21.428 49.3007772,20.944 49.8687772,20.32 C50.4367772,19.696 50.8447772,18.964 51.0927772,18.124 C51.3407772,17.284 51.4647772,16.36 51.4647772,15.352 C51.4647772,13.944 51.2607772,12.76 50.8527772,11.8 C50.4447772,10.84 49.8887772,10.116 49.1847772,9.628 C48.4807772,9.14 47.6647772,8.896 46.7367772,8.896 C45.9687772,8.896 45.2407772,9.06 44.5527772,9.388 C44.0613486,9.62228571 43.5984915,9.91983673 43.1642057,10.2806531 L43.064,10.368 L43.0647772,3.328 L38.0967772,3.52 L38.0967772,5.248 L39.704,5.718 L39.7047772,21.808 C40.3703772,21.936 41.0001372,22.0384 41.5940572,22.1152 L42.0327772,22.168 C42.7527772,22.248 43.4247772,22.288 44.0487772,22.288 Z M44.6487772,19.888 C44.2373486,19.888 43.7810221,19.8390204 43.2797976,19.7410612 L43.064,19.696 L43.064,12.38 L43.0780017,12.3676735 C43.3562057,12.1417143 43.6291853,11.9549388 43.8969404,11.8073469 L44.0967772,11.704 C44.5607772,11.48 45.0007772,11.368 45.4167772,11.368 C45.9607772,11.368 46.4167772,11.54 46.7847772,11.884 C47.1527772,12.228 47.4407772,12.716 47.6487772,13.348 C47.8567772,13.98 47.9607772,14.736 47.9607772,15.616 C47.9607772,16.96 47.6967772,18.008 47.1687772,18.76 C46.6407772,19.512 45.8007772,19.888 44.6487772,19.888 Z M54.2807928,27.808 C55.1447928,27.808 55.9007928,27.676 56.5487928,27.412 C57.1967928,27.148 57.7647928,26.764 58.2527928,26.26 C58.7407928,25.756 59.1767928,25.144 59.5607928,24.424 C59.9447928,23.704 60.3047928,22.88 60.6407928,21.952 L60.6407928,21.952 L64.542,11.146 L65.6567928,10.792 L65.6567928,9.088 L59.9927928,9.28 L59.9927928,11.008 L61.392,11.292 L59.13,18.599 L56.611,11.182 L58.0487928,10.792 L58.0487928,9.088 L52.0727928,9.28 L52.0727928,11.008 L53.247,11.292 L57.607,22.124 L57.5191053,22.3474375 C57.3576053,22.7469375 57.1951053,23.1034375 57.0316053,23.4169375 L56.9087928,23.644 C56.5807928,24.228 56.1967928,24.66 55.7567928,24.94 C55.3167928,25.22 54.7447928,25.36 54.0407928,25.36 C53.8487928,25.36 53.6447928,25.352 53.4287928,25.336 C53.2127928,25.32 52.9767928,25.296 52.7207928,25.264 L52.7207928,25.264 L52.4087928,27.64 C53.0967928,27.752 53.7207928,27.808 54.2807928,27.808 Z M77.704803,22 L77.704803,20.272 L75.952,19.752 L75.952,14.632 L82.72,14.632 L82.72,19.751 L80.944803,20.272 L80.944803,22 L87.904803,22 L87.904803,20.272 L86.152,19.763 L86.152,7.416 L87.904803,6.832 L87.904803,5.104 L80.944803,5.224 L80.944803,6.952 L82.72,7.433 L82.72,12.16 L75.952,12.16 L75.952,7.422 L77.704803,6.832 L77.704803,5.104 L70.744803,5.224 L70.744803,6.952 L72.52,7.446 L72.52,19.756 L70.744803,20.272 L70.744803,22 L77.704803,22 Z M93.1207908,22.288 C93.9207908,22.288 94.6967908,22.096 95.4487908,21.712 C96.2007908,21.328 96.8967908,20.744 97.5367908,19.96 L97.353,20.176 L97.7527908,22.192 L101.952791,21.976 L101.952791,20.272 L100.344,19.767 L100.344791,12.832 C100.344791,11.5776 100.003315,10.6298311 99.3203642,9.98869333 L99.1687908,9.856 C98.3847908,9.216 97.2487908,8.896 95.7607908,8.896 C95.0087908,8.896 94.1807908,8.972 93.2767908,9.124 C92.3727908,9.276 91.3767908,9.512 90.2887908,9.832 L90.2887908,9.832 L90.4807908,13.336 L92.5687908,13.336 L92.835,11.674 L92.8747908,11.662 C93.0907908,11.606 93.2987908,11.558 93.4987908,11.518 L93.7927908,11.464 C94.1767908,11.4 94.5367908,11.368 94.8727908,11.368 C95.5607908,11.368 96.0847908,11.528 96.4447908,11.848 C96.8047908,12.168 96.9847908,12.704 96.9847908,13.456 L96.9847908,13.456 L96.984,14.776 L94.6087908,14.776 C93.655902,14.776 92.8294328,14.8708148 92.1293834,15.0604444 L91.8727908,15.136 C91.1207908,15.376 90.5487908,15.764 90.1567908,16.3 C89.7647908,16.836 89.5687908,17.56 89.5687908,18.472 C89.5687908,19.704 89.9047908,20.648 90.5767908,21.304 C91.2487908,21.96 92.0967908,22.288 93.1207908,22.288 Z M94.6146684,19.8564082 L94.4407908,19.864 C94.0087908,19.864 93.6527908,19.724 93.3727908,19.444 C93.0927908,19.164 92.9527908,18.728 92.9527908,18.136 C92.9527908,17.592 93.1127908,17.192 93.4327908,16.936 C93.7527908,16.68 94.3287908,16.552 95.1607908,16.552 L95.1607908,16.552 L96.984,16.552 L96.984,18.61 L96.9107908,18.6803333 C96.6174575,18.9478889 96.3134575,19.1745556 95.9987908,19.3603333 L95.7607908,19.492 C95.2807908,19.74 94.8407908,19.864 94.4407908,19.864 L94.6146684,19.8564082 Z M109.695203,22.048 L112.282,12.952 L114.567203,22.048 L118.191203,22.048 L121.173,11.154 L122.295203,10.792 L122.295203,9.088 L117.183203,9.28 L117.183203,11.008 L118.448,11.306 L116.55,19.105 L114.159203,9.064 L110.727203,9.256 L108.171,18.902 L106.442,11.164 L107.799203,10.792 L107.799203,9.088 L102.135203,9.28 L102.135203,11.008 L103.301,11.295 L106.071203,22.048 L109.695203,22.048 Z M129.295251,22 L129.295251,20.272 L127.855,19.838 L127.855,12.679 L128.066353,12.4979592 C128.352394,12.2628571 128.641047,12.0669388 128.932312,11.9102041 L129.151251,11.8 C129.663251,11.56 130.135251,11.44 130.567251,11.44 C131.127251,11.44 131.579251,11.624 131.923251,11.992 C132.267251,12.36 132.439251,12.936 132.439251,13.72 L132.439251,13.72 L132.439,19.855 L130.999251,20.272 L130.999251,22 L137.407251,22 L137.407251,20.272 L135.799,19.79 L135.799251,13 C135.814184,11.7157333 135.508549,10.7346133 134.882344,10.05664 L134.743251,9.916 C134.023251,9.236 133.119251,8.896 132.031251,8.896 C131.247251,8.896 130.423251,9.084 129.559251,9.46 C128.887251,9.75244444 128.244288,10.1682963 127.630362,10.7075556 L127.45,10.873 L127.111251,9.064 L122.887251,9.256 L122.887251,10.984 L124.495,11.463 L124.495,19.813 L122.887251,20.272 L122.887251,22 L129.295251,22 Z" id="KelbyHawn" fill="#EEEDEF" fill-rule="nonzero"></path>
                <line x1="63.7" y1="27" x2="137.4" y2="27.5" id="Line-6-Copy" stroke="#FF0000" stroke-width="2"></line>
                <line x1="1.1" y1="27" x2="46.9" y2="27" id="Line-6-Copy-2" stroke="#FF0000" stroke-width="2"></line>
            </g>
        </g>
    </g>
</svg>